<?xml version="1.0" encoding="UTF-8"?>
<svg version="1.1" xmlns="http://www.w3.org/2000/svg" width="1536" height="1536">
<path d="M0 0 C4.16118213 2.48473465 7.52249686 5.64374871 11 9 C11.71470459 9.6815918 11.71470459 9.6815918 12.44384766 10.37695312 C17.59690319 15.30973331 22.50401119 20.42545571 27.1328125 25.8515625 C29.02783018 28.03202217 30.97950351 30.15369771 32.94458008 32.27099609 C36.88191719 36.51410013 40.69646931 40.78741132 44.3125 45.3125 C48.61965079 50.66733612 53.26209035 55.6526268 57.97436523 60.64794922 C61.00510424 63.86085477 63.99762485 67.08496198 66.875 70.4375 C80.3625554 86.05466941 97.46229621 100.17397315 115 111 C116.07636719 111.67933594 117.15273438 112.35867188 118.26171875 113.05859375 C185.17354082 154.70012612 259.49131301 159.98016854 335 143 C336.51279541 142.66355469 336.51279541 142.66355469 338.05615234 142.3203125 C371.59496717 134.62195163 404.42922071 121.88858034 436.2902832 109.05957031 C448.36853905 104.19965435 460.49645359 99.66415762 473 96 C474.00135986 95.69932617 474.00135986 95.69932617 475.02294922 95.39257812 C507.87698461 85.91395021 540.1452924 98.57717169 570.26841736 110.70779419 C657.1222742 145.67707077 754.16314083 172.23960385 844.6875 133.75 C859.2914402 127.33986828 873.86949307 120.09188131 887 111 C888.58554688 109.91525391 888.58554688 109.91525391 890.203125 108.80859375 C914.71795934 91.80597672 935.98147871 71.22384018 955.25439453 48.52246094 C961.75242459 40.87108133 968.35218189 33.3572637 975.203125 26.01953125 C977.67041162 23.37279043 980.05623582 20.66204861 982.4375 17.9375 C998.29343271 0.21616344 998.29343271 0.21616344 1004.27734375 -0.1328125 C1005.59412109 -0.12894531 1005.59412109 -0.12894531 1006.9375 -0.125 C1007.81277344 -0.12757813 1008.68804688 -0.13015625 1009.58984375 -0.1328125 C1012 0 1012 0 1015 1 C1015 1.66 1015 2.32 1015 3 C1015.99 3.33 1016.98 3.66 1018 4 C1036.73040904 38.9311364 1041.0461672 87.67846543 1041.203125 126.796875 C1041.21371445 128.56649094 1041.21371445 128.56649094 1041.22451782 130.37185669 C1041.45637103 180.53739542 1041.45637103 180.53739542 1038 205 C1037.90054077 205.70481506 1037.80108154 206.40963013 1037.6986084 207.13580322 C1033.18019192 238.83175484 1026.02836147 269.57118427 1016 300 C1015.64711914 301.08700195 1015.29423828 302.17400391 1014.93066406 303.29394531 C1005.13980709 333.32349825 992.14400722 361.80912846 978 390 C977.51402344 390.96921387 977.02804687 391.93842773 976.52734375 392.93701172 C962.1952849 421.30700135 945.07656131 448.59255011 926 474 C925.55462891 474.59699707 925.10925781 475.19399414 924.65039062 475.80908203 C919.2366675 483.04717252 913.53631936 490.01049293 907.65625 496.87109375 C905.18626898 499.76015296 902.80998176 502.71772089 900.4375 505.6875 C896.67966297 510.31253019 892.61574536 514.48723709 888.35546875 518.6484375 C885.6443977 521.35501257 883.13735424 524.18683726 880.66796875 527.11328125 C873.42521551 535.30590377 864.97961787 542.537939 857 550 C856.41138184 550.55123535 855.82276367 551.1024707 855.21630859 551.67041016 C849.26379993 557.23318197 843.18830106 562.58167232 836.83984375 567.69140625 C834.2818121 569.77090653 831.76857206 571.89052282 829.26489258 574.03442383 C822.36317253 579.93946851 815.2720284 585.55779315 808 591 C807.30664551 591.51933105 806.61329102 592.03866211 805.89892578 592.57373047 C788.95760929 605.22891236 771.68548627 617.40685401 754 629 C753.36626465 629.41781738 752.7325293 629.83563477 752.07958984 630.26611328 C740.57007168 637.84707961 728.84160958 645.04715347 717.04003906 652.16308594 C714.01900496 653.98851643 711.00515718 655.82535837 707.9921875 657.6640625 C693.37241893 666.55305079 678.51543959 674.92804478 663.48779297 683.09960938 C660.17472434 684.9047981 656.86957959 686.72365837 653.56640625 688.546875 C642.46313012 694.65257317 631.26451962 700.39339503 619.78125 705.75 C616.26122463 707.39341879 612.78564887 709.10145853 609.32958984 710.87475586 C588.81072769 721.39156258 567.44989951 730.29849517 545.97949219 738.66174316 C541.71877962 740.32170174 537.46998257 742.00928981 533.22599792 743.71154785 C530.15387947 744.93988685 527.07586905 746.15294117 523.99642944 747.36279297 C522.51812204 747.94663713 521.0419859 748.53601429 519.56826782 749.13134766 C517.5046662 749.96327067 515.4335038 750.77287145 513.359375 751.578125 C512.17827148 752.04637695 510.99716797 752.51462891 509.78027344 752.99707031 C501.5424129 755.18262515 494.7896805 754.11566601 486.99609375 750.9921875 C486.16760422 750.67519394 485.33911469 750.35820038 484.48551941 750.03160095 C481.79582401 748.99655844 479.11669676 747.93689166 476.4375 746.875 C474.55612765 746.14204963 472.67445049 745.40988119 470.79248047 744.6784668 C444.4277548 734.38157014 418.5744897 723.12259491 393 711 C390.93892461 710.03098934 388.87772993 709.06223237 386.81640625 708.09375 C375.56927985 702.78735188 364.47569064 697.25299759 353.52539062 691.35839844 C350.79673355 689.89066371 348.06240069 688.43380089 345.328125 686.9765625 C332.00984303 679.84975915 318.90865923 672.39934361 305.90527344 664.71435547 C303.08981641 663.05299923 300.26852854 661.40203503 297.4453125 659.75390625 C278.61290767 648.73453415 260.03103325 637.29222216 242 625 C241.25943359 624.49758789 240.51886719 623.99517578 239.75585938 623.47753906 C215.38194218 606.9402236 191.46768633 589.76088487 169.0703125 570.6015625 C166.32265955 568.25742299 163.51199772 566.00116684 160.6875 563.75 C154.4689453 558.6934526 148.70150465 553.17664005 142.88671875 547.66796875 C138.76113095 543.76052708 134.56066252 539.94421675 130.33203125 536.1484375 C115.42820562 522.41794488 101.61545094 506.83690463 89 491 C88.48808105 490.360625 87.97616211 489.72125 87.44873047 489.0625 C78.4047538 477.73308955 70.01237173 466.07813365 62 454 C61.4652002 453.19836426 60.93040039 452.39672852 60.37939453 451.57080078 C10.00465099 375.89519476 -25.49166104 290.13671273 -38 186 C-38.10602539 184.97326172 -38.21205078 183.94652344 -38.32128906 182.88867188 C-39.44352196 170.00913879 -39.24397314 157.04210076 -39.25 144.125 C-39.25067474 142.82832397 -39.25134949 141.53164795 -39.25204468 140.19567871 C-39.23585252 120.6058861 -38.76954231 101.41381611 -36 82 C-35.74259033 80.13384033 -35.74259033 80.13384033 -35.47998047 78.22998047 C-27.47826131 21.71739196 -27.47826131 21.71739196 -15 3 C-14.34 3 -13.68 3 -13 3 C-13 2.34 -13 1.68 -13 1 C-8.49098851 -0.50300383 -4.69326035 -0.98564995 0 0 Z " fill="#F38283" transform="translate(267,709)"/>
<path d="M0 0 C5.35530538 -0.47179661 8.93202764 1.15048722 13.5625 3.5625 C92.53426982 42.32952055 190.98711856 33.60818907 301.33203125 4.9609375 C302.35184082 4.67549072 303.37165039 4.39004395 304.42236328 4.09594727 C306.17270362 3.60002265 307.92022831 3.09395305 309.66357422 2.57397461 C319.54625009 -0.26753551 327.0360202 1.55497046 336.75 4.3125 C339.42659233 5.05087178 342.10583885 5.77939937 344.78515625 6.5078125 C345.50395462 6.70398666 346.22275299 6.90016083 346.96333313 7.10227966 C433.80931413 30.72186294 518.67164441 39.19962114 631.30859375 1.27734375 C634.41145949 -0.19527903 636.60636692 -0.24240236 640 0 C640 0.66 640 1.32 640 2 C640.97066406 2.05542969 641.94132812 2.11085938 642.94140625 2.16796875 C647.99216922 2.90181863 651.7423538 5.54758575 655.9375 8.3125 C656.76725342 8.84939453 657.59700684 9.38628906 658.4519043 9.93945312 C671.14000943 18.24871369 682.96446344 27.50568858 694.33032227 37.53540039 C695.47113827 38.5360957 696.62051981 39.52708806 697.77709961 40.50952148 C703.4666711 45.37724169 708.76586202 50.61327461 714.0456543 55.9152832 C715.5599258 57.43491668 717.0794743 58.94912517 718.59960938 60.46289062 C723.94266272 65.80169025 729.13212543 71.21925265 734 77 C734.49298584 77.57564697 734.98597168 78.15129395 735.49389648 78.74438477 C759.4970172 106.94655764 784.24384095 141.81576453 794 178 C794.31582031 179.14339844 794.63164063 180.28679687 794.95703125 181.46484375 C802.3085641 211.30736753 789.63014575 238.51953339 775 264 C768.82471898 274.08604101 760.18962564 282.54418155 752 291 C751.51289551 291.50370117 751.02579102 292.00740234 750.52392578 292.52636719 C745.87810832 297.30691834 741.12021384 301.89340141 736.0546875 306.2265625 C733.70485434 308.25474549 731.41759219 310.3448847 729.125 312.4375 C668.7341097 366.72554015 592.39524399 397.33068764 511.06933594 393.87548828 C470.8523409 391.60083713 432.2191939 377.73370177 396 361 C395.14583496 360.60748047 394.29166992 360.21496094 393.41162109 359.81054688 C385.88880514 356.34693995 378.45188011 352.73905169 371.0625 349 C363.21473206 345.03630429 355.2380186 341.40952547 347.16210938 337.93603516 C345.0947274 337.04101003 343.03971542 336.12147383 340.984375 335.19921875 C328.45990303 329.71379292 317.04571771 328.39856295 304.06762695 333.05126953 C300.87480779 334.33714953 297.7164988 335.68418139 294.5625 337.0625 C293.42377441 337.55274658 292.28504883 338.04299316 291.11181641 338.5480957 C279.31410974 343.66286652 267.6929855 349.10735799 256.21948242 354.91113281 C236.95968152 364.6458267 217.48900083 373.17950501 197 380 C196.1239209 380.29245605 195.2478418 380.58491211 194.34521484 380.88623047 C122.79590054 404.40340776 48.62370747 395.20046527 -17.89697266 361.61621094 C-32.24141926 354.14490987 -45.91410255 345.49185988 -59 336 C-59.66725098 335.5167627 -60.33450195 335.03352539 -61.02197266 334.53564453 C-74.00421787 325.07974514 -86.14215896 314.82991674 -98 304 C-98.95648438 303.13632812 -99.91296875 302.27265625 -100.8984375 301.3828125 C-119.55636749 284.49234888 -134.27582434 267.12951036 -145.3125 244.4375 C-145.81628174 243.40931152 -146.32006348 242.38112305 -146.83911133 241.32177734 C-158.29853697 217.20855799 -159.92778069 194.05203609 -151.26953125 168.87597656 C-149.47415821 164.10493894 -147.28323886 159.55356123 -145 155 C-144.57299805 154.13648926 -144.14599609 153.27297852 -143.70605469 152.38330078 C-129.61967774 124.06821066 -112.10959092 96.88649233 -90.484375 73.6953125 C-88.5762686 71.62519707 -86.7370289 69.53107755 -84.90625 67.39453125 C-80.56252933 62.41457363 -75.92049569 57.73443097 -71.24951172 53.06420898 C-69.76106763 51.57358385 -68.28082723 50.07512983 -66.80078125 48.57617188 C-60.52877019 42.26782036 -53.98346864 36.5259642 -47 31 C-45.45680041 29.73102857 -43.91490399 28.46046865 -42.375 27.1875 C-32.62692916 19.43229942 -22.35466339 12.28276917 -11.75 5.75 C-11.14260986 5.367229 -10.53521973 4.98445801 -9.90942383 4.59008789 C-6.47011575 2.52514994 -4.0243739 1.54612324 0 2 C0 1.34 0 0.68 0 0 Z " fill="#F38283" transform="translate(448,414)"/>
<path d="M0 0 C1.1614856 0.00182281 2.32297119 0.00364563 3.51965332 0.00552368 C88.06018146 0.22853401 88.06018146 0.22853401 114.44140625 24.5703125 C120.674589 31.82879685 123.3026357 38.71144833 123.22265625 48.171875 C122.8015749 52.8095381 121.24500998 56.31656808 118.9375 60.3125 C118.380625 61.281875 117.82375 62.25125 117.25 63.25 C105.83597299 78.36587361 91.10837364 88.80891591 74.9375 98.3125 C74.01710938 98.86236572 74.01710938 98.86236572 73.078125 99.42333984 C9.85490759 137.06344444 -63.37848082 148.5877199 -136 148.5 C-136.93548676 148.49939575 -137.87097351 148.4987915 -138.83480835 148.49816895 C-154.65330366 148.47061205 -170.32059226 147.99673354 -186.0625 146.3125 C-187.2179834 146.18891113 -188.3734668 146.06532227 -189.56396484 145.93798828 C-269.81024815 136.96858255 -269.81024815 136.96858255 -283 122.4375 C-285.21645286 119.07923809 -286.0625 117.32114118 -286.0625 113.3125 C-276.08335009 85.49480432 -234.25266194 65.4454044 -210.12353516 52.43115234 C-208.23234553 51.40468577 -206.35491289 50.35741974 -204.48046875 49.30078125 C-143.61636463 15.62400984 -69.13415558 -0.22597312 0 0 Z " fill="#62CE90" transform="translate(1058.0625,272.6875)"/>
<path d="M0 0 C1.16120361 0.00182281 2.32240723 0.00364563 3.51879883 0.00552368 C21.52673784 0.05300253 39.16641151 0.63026549 57 3.3125 C58.74966064 3.56990967 58.74966064 3.56990967 60.53466797 3.83251953 C129.22038258 14.20629665 196.43726292 37.24146798 253 78.3125 C254.04285156 79.06789063 255.08570313 79.82328125 256.16015625 80.6015625 C262.45854114 85.25922388 268.3253174 90.29183451 274.0625 95.625 C274.69397949 96.21176514 275.32545898 96.79853027 275.97607422 97.40307617 C281.94862701 103.04919389 286.50107959 107.77037789 287 116.3125 C285.43793501 121.38921121 282.30591487 124.37643644 278 127.3125 C275.16618932 128.71635299 272.25689351 129.71739146 269.25 130.6875 C268.35877441 130.97858643 267.46754883 131.26967285 266.54931641 131.56958008 C225.57727945 144.29786233 181.1006471 148.55140386 138.375 148.5 C137.43802277 148.49939575 136.50104553 148.4987915 135.53567505 148.49816895 C53.37098613 148.35543881 -36.13354054 133.64474368 -101 79.3125 C-101.95132812 78.51585937 -102.90265625 77.71921875 -103.8828125 76.8984375 C-112.15366621 69.71390487 -121.05270896 60.20350306 -122.2734375 48.74609375 C-122.53647662 40.98643976 -121.15443943 35.85301689 -117 29.3125 C-116.1646875 27.9821875 -116.1646875 27.9821875 -115.3125 26.625 C-100.79213906 12.10463906 -79.78072165 7.48147066 -60.25 4.125 C-59.36014404 3.97015137 -58.47028809 3.81530273 -57.5534668 3.65576172 C-38.45215256 0.58121793 -19.31262978 -0.06320484 0 0 Z " fill="#62CE90" transform="translate(477,272.6875)"/>
<path d="M0 0 C0.78375 -0.00515625 1.5675 -0.0103125 2.375 -0.015625 C5.74637584 0.32552613 8.75672765 1.26688307 12 2.25 C13.41577281 2.62707017 14.8324969 3.00058122 16.25 3.37109375 C42.40602271 10.48694846 70.91607785 23.84520268 85.7578125 47.8203125 C93.88107465 63.70920892 96.59347673 83.46988109 91.0625 100.75 C90.10661707 103.31960665 89.13265392 105.76487621 88 108.25 C87.68353516 108.94528809 87.36707031 109.64057617 87.04101562 110.35693359 C76.67927048 132.44718741 59.49323565 150.61959621 41 166.25 C40.06929687 167.05824219 39.13859375 167.86648438 38.1796875 168.69921875 C30.87209244 175.01344835 23.29893777 180.88439793 15.53125 186.62109375 C12.63085657 188.76350433 9.81039995 190.99045884 7 193.25 C3.58388264 195.45394668 1.03691399 195.85934551 -3 195.25 C-9.28267368 191.6817378 -15.01097341 187.07306673 -20.6875 182.625 C-21.46569092 182.01672363 -22.24388184 181.40844727 -23.0456543 180.78173828 C-34.32678278 171.90701949 -45.10601218 162.49068835 -55.53320312 152.62890625 C-56.86829507 151.37381316 -58.22225085 150.13886286 -59.578125 148.90625 C-76.26389373 133.18933236 -92.1541024 109.57423945 -93.44140625 86.1015625 C-93.75955463 75.33660722 -93.82262803 65.10285263 -89 55.25 C-88.67257812 54.42371094 -88.34515625 53.59742188 -88.0078125 52.74609375 C-78.52044219 30.62043817 -53.27887255 16.7704371 -32 8.25 C-26.12051625 6.18072022 -20.14372184 4.45254041 -14.12695312 2.83154297 C-12.15269087 2.29174812 -10.19264619 1.70066943 -8.234375 1.10546875 C-5.33456466 0.33848993 -2.98091156 -0.01961126 0 0 Z " fill="#62CE90" transform="translate(768,164.75)"/>
<path d="M0 0 C5.61194801 3.30626395 10.17175573 8.11729258 12.828125 14.0625 C14.4118914 21.11745941 14.66448834 28.00839411 14.66088867 35.20605469 C14.66424728 36.18281158 14.6676059 37.15956848 14.67106628 38.16592407 C14.68051946 41.3762542 14.68251661 44.58653184 14.68359375 47.796875 C14.68681043 50.04355897 14.69017481 52.29024273 14.69367981 54.53692627 C14.69965714 59.24076828 14.70152116 63.94459196 14.70092773 68.6484375 C14.70082624 74.65116558 14.71447196 80.65377505 14.73169994 86.65647507 C14.74286451 91.29612764 14.74484557 95.93575194 14.74431801 100.57541656 C14.74549166 102.78720762 14.74987858 104.99899957 14.75765038 107.21077728 C14.86084395 139.61359675 14.86084395 139.61359675 6.875 147.80859375 C1.10093402 153.04291008 -3.86163626 154.61148931 -11.63671875 154.43359375 C-18.74174949 153.66363843 -23.68656969 150.64398712 -28.1953125 145.19921875 C-32.51432553 138.24953415 -32.92222373 132.60807451 -32.88842773 124.54931641 C-32.89529099 123.40207596 -32.90215424 122.25483551 -32.90922546 121.0728302 C-32.92748613 117.2906141 -32.92365651 113.50881312 -32.91796875 109.7265625 C-32.92253112 107.09011704 -32.92783686 104.45367277 -32.93385315 101.81723022 C-32.94386911 96.29445446 -32.94059749 90.77179589 -32.93041992 85.24902344 C-32.91894678 78.88290411 -32.93300581 72.51720648 -32.9598164 66.15114272 C-32.98471876 60.0060401 -32.98713866 53.86113079 -32.98069954 47.71598434 C-32.98054644 45.1109586 -32.98658135 42.50592469 -32.99899101 39.9009285 C-33.01391807 36.25346041 -33.00320946 32.60691255 -32.98608398 28.95947266 C-32.99575195 27.89008957 -33.00541992 26.82070648 -33.01538086 25.71891785 C-32.94029707 18.05687265 -31.55603122 11.71859781 -26.484375 5.78515625 C-25.824375 5.25792969 -25.164375 4.73070312 -24.484375 4.1875 C-23.824375 3.64222656 -23.164375 3.09695313 -22.484375 2.53515625 C-15.97774996 -2.05252274 -7.55572127 -2.66113454 0 0 Z " fill="#FFFFFF" transform="translate(1037.484375,1067.875)"/>
<path d="M0 0 C6.54498893 4.20906696 11.32120285 9.19271245 13.2578125 16.8671875 C13.55917593 20.68248236 13.56184451 24.48771071 13.56420898 28.31347656 C13.5725325 29.45896469 13.58085602 30.60445282 13.58943176 31.78465271 C13.61350529 35.56740734 13.62230105 39.34998941 13.62890625 43.1328125 C13.63787497 45.76829072 13.64699686 48.40376842 13.65626526 51.03924561 C13.67361077 56.56376792 13.68048739 62.08824643 13.68334961 67.61279297 C13.68698083 73.97835471 13.71685294 80.34343312 13.75875419 86.70884728 C13.79776916 92.85339909 13.80894491 98.99771763 13.81007576 105.14238739 C13.81427288 107.74660613 13.82668656 110.35082548 13.84759331 112.95496368 C13.87456175 116.60483925 13.86966421 120.25339473 13.85717773 123.90332031 C13.87201202 124.97067917 13.88684631 126.03803802 13.90213013 127.13774109 C13.8248111 135.1071839 11.9598179 141.80807557 6.48573971 147.81019974 C0.69090642 153.22771932 -5.21803371 154.36167906 -13 154.171875 C-20.308663 153.35980133 -24.8141872 149.45134468 -29.3359375 143.87109375 C-34.65156 136.29633169 -33.89191572 125.56420176 -33.88745117 116.67260742 C-33.89080978 115.6957045 -33.8941684 114.71880157 -33.89762878 113.71229553 C-33.90706799 110.50740256 -33.9090783 107.30256223 -33.91015625 104.09765625 C-33.91337356 101.85240152 -33.91673799 99.607147 -33.92024231 97.3618927 C-33.9262159 92.66402704 -33.92808402 87.96617973 -33.92749023 83.26831055 C-33.92738868 77.27345822 -33.94104205 71.27872451 -33.95826244 65.28390026 C-33.96942607 60.6485389 -33.97140811 56.01320583 -33.97088051 51.37783241 C-33.972054 49.16883243 -33.97644003 46.95983157 -33.98421288 44.75084496 C-34.08209204 14.0638359 -34.08209204 14.0638359 -27.7421875 6.8671875 C-19.89108819 -0.70939785 -10.92848616 -4.51461679 0 0 Z " fill="#FFFFFF" transform="translate(517.7421875,1068.1328125)"/>
<path d="M0 0 C7.46749628 4.77672903 11.15118029 10.30896564 13.23828125 18.82421875 C13.64073275 22.55544106 13.64918557 26.24996808 13.62646484 30.00024414 C13.6317218 31.08110794 13.63697876 32.16197174 13.64239502 33.27558899 C13.65552654 36.82450091 13.64688156 40.37295905 13.63671875 43.921875 C13.6387413 46.40091538 13.64165424 48.87995518 13.64541626 51.35899353 C13.64983023 56.54448127 13.6434377 61.72981358 13.62939453 66.9152832 C13.61229451 73.55182025 13.62215525 80.1879935 13.64011192 86.82451725 C13.65096705 91.94012682 13.64749558 97.05565054 13.63972855 102.17126274 C13.6377318 104.61801637 13.6401673 107.06477787 13.64716721 109.51152229 C13.6548109 112.93375344 13.64313624 116.35540012 13.62646484 119.77758789 C13.63557388 121.28415955 13.63557388 121.28415955 13.64486694 122.82116699 C13.56289502 131.93337129 11.37862439 138.40557291 5.05078125 145.12890625 C-0.06320904 149.91225061 -5.94521427 150.96859252 -12.76171875 150.82421875 C-19.58694022 149.76377112 -25.57160684 146.34224621 -29.76171875 140.82421875 C-33.39813346 133.7103045 -34.34011875 127.46073617 -34.26342773 119.55053711 C-34.26883072 118.47113358 -34.2742337 117.39173004 -34.27980042 116.27961731 C-34.29222389 112.74081304 -34.27583946 109.20283245 -34.2578125 105.6640625 C-34.25796762 103.18884743 -34.25945882 100.71363211 -34.26222229 98.23841858 C-34.2636034 93.06305134 -34.25109512 87.8879622 -34.22827148 82.71264648 C-34.19987337 76.09303514 -34.20263235 69.47388502 -34.2153616 62.85423946 C-34.22232995 57.74715769 -34.21451642 52.64018174 -34.20210457 47.53311348 C-34.1976024 45.09277312 -34.19724243 42.65242135 -34.20116997 40.21208 C-34.20409384 36.79731992 -34.1875186 33.38318655 -34.16577148 29.96850586 C-34.17027313 28.96929108 -34.17477478 27.97007629 -34.17941284 26.94058228 C-34.08849858 18.3095508 -32.59144474 10.73777027 -26.46875 4.33203125 C-19.25775622 -2.0374049 -9.0132018 -3.83730374 0 0 Z " fill="#FFFFFF" transform="translate(863.76171875,910.17578125)"/>
<path d="M0 0 C5.56766563 2.51408158 9.84564072 6.74868537 12.42012119 12.29692936 C14.5852173 18.43391686 14.94884188 24.01848213 14.91967773 30.49194336 C14.92654099 31.56959457 14.93340424 32.64724579 14.94047546 33.7575531 C14.95867959 37.29683856 14.95491502 40.83567806 14.94921875 44.375 C14.95378348 46.8492497 14.95908992 49.32349814 14.96510315 51.79774475 C14.97402166 56.97483482 14.9716252 62.15177052 14.96166992 67.32885742 C14.95018004 73.9473368 14.97039925 80.56528266 14.99958706 87.18369198 C15.01797474 92.29081072 15.01765145 97.3978022 15.01194954 102.50494576 C15.01179665 104.94447134 15.01781391 107.38400574 15.03024101 109.82349968 C15.04519776 113.24066062 15.03443853 116.65684327 15.01733398 120.07397461 C15.02700195 121.07116516 15.03666992 122.06835571 15.04663086 123.09576416 C14.96705884 130.72697715 13.37718824 137.57921644 8.69140625 143.75 C2.44375995 148.89743186 -3.31482001 151.75106476 -11.546875 151.34765625 C-19.20325244 150.2318431 -24.26133863 146.05311091 -29.2578125 140.38671875 C-32.99129971 134.18009352 -32.78123079 127.46221749 -32.77490234 120.44628906 C-32.78161957 119.37053619 -32.78833679 118.29478333 -32.79525757 117.18643188 C-32.81420624 113.6411676 -32.81816034 110.09609298 -32.8203125 106.55078125 C-32.82674301 104.07606937 -32.83347156 101.60135825 -32.84048462 99.12664795 C-32.85244987 93.94183592 -32.85616625 88.75709048 -32.85498047 83.57226562 C-32.85477742 76.94712538 -32.88206867 70.32241478 -32.91652489 63.69737625 C-32.93882589 58.58593812 -32.942817 53.47460282 -32.94176102 48.36312103 C-32.94411256 45.92162344 -32.95291072 43.48012283 -32.96842575 41.0386734 C-32.98814801 37.6143486 -32.98222225 34.190943 -32.97021484 30.76660156 C-32.98145386 29.7698642 -32.99269287 28.77312683 -33.00427246 27.7461853 C-32.93615553 20.05355119 -31.77111636 12.01417568 -26.47064781 6.10124588 C-18.69914694 -1.00439543 -10.41161416 -2.73386724 0 0 Z " fill="#FFFFFF" transform="translate(691.484375,909.65234375)"/>
<path d="M0 0 C6.74294441 3.97258741 11.52472962 9.55719696 13.515625 17.125 C13.8159381 20.85899741 13.80938302 24.58306775 13.80615234 28.32763672 C13.81286957 29.44707672 13.81958679 30.56651672 13.82650757 31.71987915 C13.84548181 35.4148606 13.84941141 39.10966038 13.8515625 42.8046875 C13.8579904 45.37769648 13.86471876 47.95070472 13.87173462 50.52371216 C13.88370567 55.91540533 13.88750135 61.30702664 13.88623047 66.69873047 C13.88502936 72.91657706 13.9061308 79.13407638 13.9377178 85.35183513 C13.96709561 91.35009223 13.97420461 97.34816179 13.97301102 103.3465004 C13.97536848 105.89095605 13.9842001 108.43541438 13.99967575 110.97982407 C14.01931098 114.5413659 14.01350652 118.10201749 14.00146484 121.66357422 C14.01270386 122.71007141 14.02394287 123.7565686 14.03552246 124.83477783 C13.9683946 132.66359518 12.24735024 137.87646187 7.203125 143.875 C0.23020251 149.71279557 -3.98013451 150.56865109 -13.08203125 150.55859375 C-18.76541427 149.83430498 -23.45939467 147.14998033 -27.484375 143.125 C-32.94405674 134.32799167 -33.63461866 126.16837475 -33.62963867 116.03393555 C-33.63299728 115.04435852 -33.6363559 114.05478149 -33.63981628 113.03521729 C-33.64928268 109.77737152 -33.65126723 106.51957739 -33.65234375 103.26171875 C-33.65555933 100.98639403 -33.65892363 98.71106953 -33.66242981 96.43574524 C-33.6684103 91.67045615 -33.67027082 86.90518516 -33.66967773 82.13989258 C-33.66957618 76.05062217 -33.68322688 69.96146852 -33.70044994 63.87222576 C-33.71159899 59.17346163 -33.71359605 54.47472548 -33.71306801 49.77594948 C-33.7142438 47.53180349 -33.71864294 45.28765668 -33.72640038 43.04352379 C-33.73625891 39.89701665 -33.73329911 36.75075969 -33.72729492 33.60424805 C-33.73291443 32.68807205 -33.73853394 31.77189606 -33.74432373 30.82795715 C-33.7031369 22.28235681 -33.16751268 13.88332589 -27.484375 7.125 C-19.63649269 -0.4850677 -11.02893019 -3.88440309 0 0 Z " fill="#FFFFFF" transform="translate(857.484375,1223.875)"/>
<path d="M0 0 C6.03545476 3.5557718 11.62947506 9.26627293 13.515625 16.125 C14.52606646 21.8511815 14.66374198 27.40947959 14.66088867 33.21606445 C14.66424728 34.20564148 14.6676059 35.19521851 14.67106628 36.21478271 C14.68053268 39.47262848 14.68251723 42.73042261 14.68359375 45.98828125 C14.68680933 48.26360597 14.69017363 50.53893047 14.69367981 52.81425476 C14.6996603 57.57954385 14.70152082 62.34481484 14.70092773 67.11010742 C14.70082618 73.19937783 14.71447688 79.28853148 14.73169994 85.37777424 C14.74284899 90.07653837 14.74484605 94.77527452 14.74431801 99.47405052 C14.7454938 101.71819651 14.74989294 103.96234332 14.75765038 106.20647621 C14.76750891 109.35298335 14.76454911 112.49924031 14.75854492 115.64575195 C14.76416443 116.56192795 14.76978394 117.47810394 14.77557373 118.42204285 C14.72960853 127.95907782 13.63360963 136.5083736 7.515625 144.125 C1.35478236 149.97780051 -4.62616223 150.70123837 -12.8984375 150.5625 C-19.30981783 149.78028366 -24.09550996 147.06131328 -28.171875 142.05078125 C-31.07234601 137.59295506 -32.60429831 133.78300735 -32.63154602 128.42098999 C-32.63870132 127.45383057 -32.64585663 126.48667114 -32.65322876 125.49020386 C-32.65591766 124.43044342 -32.65860657 123.37068298 -32.66137695 122.27880859 C-32.66794815 121.16141296 -32.67451935 120.04401733 -32.68128967 118.89276123 C-32.70103671 115.18631933 -32.71268946 111.479918 -32.72265625 107.7734375 C-32.72673178 106.50764484 -32.7308073 105.24185219 -32.73500633 103.93770218 C-32.75372237 97.92717552 -32.76828527 91.91667345 -32.7766183 85.90612543 C-32.78637639 78.98295883 -32.81265876 72.06011317 -32.85311919 65.13705957 C-32.88701427 59.12975319 -32.89877134 53.12260156 -32.90282249 47.11519241 C-32.90768885 44.56597342 -32.91930414 42.01675787 -32.93786049 39.46760178 C-32.96225377 35.89399587 -32.96128575 32.32122258 -32.9543457 28.74755859 C-32.96715576 27.69994354 -32.97996582 26.65232849 -32.99316406 25.57296753 C-32.93949541 17.96704121 -31.51578432 11.67151208 -26.484375 5.78515625 C-25.824375 5.25792969 -25.164375 4.73070312 -24.484375 4.1875 C-23.824375 3.64222656 -23.164375 3.09695313 -22.484375 2.53515625 C-15.97774996 -2.05252274 -7.55572127 -2.66113454 0 0 Z " fill="#FFFFFF" transform="translate(697.484375,1223.875)"/>
<path d="M0 0 C2.75 2.375 2.75 2.375 5 5 C5.721875 5.804375 6.44375 6.60875 7.1875 7.4375 C11.49954583 13.53384065 11.29690406 19.72874822 11.29052734 26.91137695 C11.29724457 27.99994995 11.30396179 29.08852295 11.31088257 30.21008301 C11.32985476 33.8028624 11.33378643 37.3954549 11.3359375 40.98828125 C11.34236603 43.49163387 11.34909443 45.99498574 11.35610962 48.49833679 C11.36808049 53.74459033 11.37187644 58.99079663 11.37060547 64.23706055 C11.36953763 69.61543615 11.38361506 74.99352439 11.41162109 80.37182617 C11.44500215 86.87566535 11.45871539 93.37924654 11.45738602 99.88316917 C11.4597414 102.35702155 11.46856132 104.83087677 11.48405075 107.30468178 C11.50371791 110.77023325 11.49786885 114.23487226 11.48583984 117.70043945 C11.49707886 118.71528915 11.50831787 119.73013885 11.51989746 120.77574158 C11.45042428 128.68042171 9.72489526 134.78602097 4.5625 140.875 C-1.35542038 145.78254373 -7.13516309 148.3563371 -14.9375 147.9375 C-21.69407282 147.05442209 -25.97683839 143.93324332 -30.8125 139.3125 C-35.73565295 131.85743982 -36.44518122 123.86546041 -36.40405273 115.12524414 C-36.41091599 114.08806747 -36.41777924 113.05089081 -36.42485046 111.98228455 C-36.44302305 108.58309911 -36.43929461 105.18437943 -36.43359375 101.78515625 C-36.43815997 99.40441235 -36.44346685 97.02366977 -36.44947815 94.64292908 C-36.45839045 89.66432322 -36.4560073 84.68587793 -36.44604492 79.70727539 C-36.43455538 73.34786679 -36.45477684 66.98901348 -36.48396206 60.62967777 C-36.50236442 55.71639016 -36.50202355 50.80323464 -36.49632454 45.88992119 C-36.49617183 43.54611876 -36.50217393 41.20230708 -36.51461601 38.85853767 C-36.52960094 35.5733939 -36.51879333 32.28926386 -36.50170898 29.00415039 C-36.51137695 28.04952911 -36.52104492 27.09490784 -36.53100586 26.11135864 C-36.44413192 18.07780981 -34.75700057 10.40997439 -29.625 4.0625 C-20.42275303 -3.1678369 -10.83756656 -5.96541493 0 0 Z " fill="#FFFFFF" transform="translate(1207,874)"/>
<path d="M0 0 C5.7603833 4.84395869 9.58519327 10.57802485 11 18 C11.28077748 21.51836496 11.28367866 25.02183922 11.2746582 28.55004883 C11.27976913 29.58839371 11.28488007 30.62673859 11.29014587 31.69654846 C11.30400455 35.11676863 11.30308768 38.5367864 11.30078125 41.95703125 C11.3046706 44.34445775 11.30900576 46.73188355 11.31376648 49.11930847 C11.32122098 54.12000777 11.32094324 59.12063646 11.31567383 64.12133789 C11.30988443 70.5133437 11.32680145 76.90505925 11.3500185 83.2970171 C11.36478862 88.22740861 11.36562299 93.15773077 11.36250877 98.08814049 C11.36302047 100.4439317 11.3682296 102.79972694 11.37832069 105.1554966 C11.39072927 108.4577757 11.38386626 111.75949665 11.37231445 115.06176758 C11.38378006 116.50616211 11.38378006 116.50616211 11.39547729 117.97973633 C11.32246973 127.47590879 9.52097848 135.44290557 2.8125 142.375 C-2.3924545 147.04151093 -8.16801525 148.16051653 -15 148 C-21.42804775 146.95509238 -25.81724074 145.16693792 -30 140 C-30.721875 139.195625 -31.44375 138.39125 -32.1875 137.5625 C-36.50556441 131.45765031 -36.29208261 125.26425199 -36.2746582 118.07275391 C-36.27976913 116.98257462 -36.28488007 115.89239532 -36.29014587 114.7691803 C-36.30402613 111.17158491 -36.30308618 107.57418145 -36.30078125 103.9765625 C-36.30466914 101.4708143 -36.30900401 98.96506676 -36.31376648 96.45932007 C-36.32122541 91.2088661 -36.32107853 85.95846163 -36.31567383 80.70800781 C-36.30963721 74.65381023 -36.32194095 68.59984523 -36.3432439 62.54568732 C-36.36303599 56.704422 -36.36602743 50.86324728 -36.36250877 45.02195358 C-36.36302145 42.54449289 -36.36824918 40.06702844 -36.37832069 37.58958817 C-36.3906887 34.12155616 -36.38389055 30.65405893 -36.37231445 27.18603516 C-36.37995819 26.16759018 -36.38760193 25.1491452 -36.39547729 24.09983826 C-36.33571642 15.97935277 -34.9713924 8.9713924 -29 3 C-20.03357081 -3.52608145 -10.14548882 -5.56221975 0 0 Z " fill="#FFFFFF" transform="translate(354,874)"/>
<path d="M0 0 C5.85817113 4.24743055 8.7761458 9.60419237 10.23046875 16.6171875 C10.50543481 19.65218185 10.51431888 22.66835266 10.50512695 25.71435547 C10.51023788 26.59824951 10.51534882 27.48214355 10.52061462 28.39282227 C10.53445061 31.29840981 10.5335583 34.20375854 10.53125 37.109375 C10.53514035 39.1404733 10.53947572 41.17157079 10.54423523 43.20266724 C10.55168466 47.45431153 10.55141551 51.70587276 10.54614258 55.95751953 C10.54035117 61.39006519 10.55727736 66.82226956 10.58048725 72.25475883 C10.5952615 76.44823169 10.59609124 80.64162306 10.59297752 84.83511734 C10.59348893 86.83726807 10.5986925 88.83942358 10.60878944 90.84154892 C10.62120756 93.64833117 10.61432997 96.45445771 10.6027832 99.26123047 C10.61424881 100.48660019 10.61424881 100.48660019 10.62594604 101.73672485 C10.55949876 109.09124227 9.05170411 116.71680762 3.859375 122.265625 C-2.05037464 127.16915827 -8.35383701 129.50639737 -16.03125 129.09375 C-23.71743718 127.75606835 -29.09779579 124.14942457 -33.61328125 117.875 C-36.69536577 111.85660523 -37.06419053 106.1479372 -37.04418945 99.52001953 C-37.04930038 98.63612549 -37.05441132 97.75223145 -37.05967712 96.84155273 C-37.07351311 93.93596519 -37.0726208 91.03061646 -37.0703125 88.125 C-37.07420285 86.0939017 -37.07853822 84.06280421 -37.08329773 82.03170776 C-37.09074716 77.78006347 -37.09047801 73.52850224 -37.08520508 69.27685547 C-37.07941367 63.84430981 -37.09633986 58.41210544 -37.11954975 52.97961617 C-37.134324 48.78614331 -37.13515374 44.59275194 -37.13204002 40.39925766 C-37.13255143 38.39710693 -37.137755 36.39495142 -37.14785194 34.39282608 C-37.16027006 31.58604383 -37.15339247 28.77991729 -37.1418457 25.97314453 C-37.14948944 25.15623138 -37.15713318 24.33931824 -37.16500854 23.49765015 C-37.09217909 15.43674229 -35.20442281 8.09400783 -29.5546875 2.125 C-20.83519416 -5.2398237 -9.74606938 -5.48506926 0 0 Z " fill="#FFFFFF" transform="translate(866.76953125,590.3828125)"/>
<path d="M0 0 C6.4637747 4.25878333 9.19732955 9.97689719 11.00390625 17.3203125 C11.38347499 20.43839976 11.41551061 23.50603224 11.39208984 26.64453125 C11.3973468 27.52871735 11.40260376 28.41290344 11.40802002 29.32388306 C11.42112021 32.21871105 11.41251752 35.11297984 11.40234375 38.0078125 C11.40436735 40.03605249 11.40728117 42.06429178 11.41104126 44.0925293 C11.4154511 48.33226485 11.40907676 52.5718101 11.39501953 56.81152344 C11.37792858 62.22833914 11.38777694 67.64470881 11.40573692 73.06150818 C11.41661098 77.24641237 11.41311182 81.43121194 11.40535355 85.61611938 C11.40336155 87.61268162 11.40577541 89.60925355 11.41279221 91.60580444 C11.42046649 94.40282114 11.40871929 97.1991294 11.39208984 99.99609375 C11.40119888 101.21675034 11.40119888 101.21675034 11.41049194 102.46206665 C11.32245649 110.5113372 9.43043762 117.85232481 3.7890625 123.8125 C-1.80499914 128.53746235 -7.98401082 130.07600167 -15.22265625 129.76171875 C-21.94268386 128.69219323 -27.23247414 125.75160906 -31.49609375 120.4453125 C-35.93621435 114.27561003 -36.29285134 107.54639766 -36.27075195 100.22314453 C-36.27586288 99.33925049 -36.28097382 98.45535645 -36.28623962 97.54467773 C-36.30007561 94.63909019 -36.2991833 91.73374146 -36.296875 88.828125 C-36.30076535 86.7970267 -36.30510072 84.76592921 -36.30986023 82.73483276 C-36.31730966 78.48318847 -36.31704051 74.23162724 -36.31176758 69.97998047 C-36.30597617 64.54743481 -36.32290236 59.11523044 -36.34611225 53.68274117 C-36.3608865 49.48926831 -36.36171624 45.29587694 -36.35860252 41.10238266 C-36.35911393 39.10023193 -36.3643175 37.09807642 -36.37441444 35.09595108 C-36.38683256 32.28916883 -36.37995497 29.48304229 -36.3684082 26.67626953 C-36.37605194 25.85935638 -36.38369568 25.04244324 -36.39157104 24.20077515 C-36.31874159 16.13986729 -34.43098531 8.79713283 -28.78125 2.828125 C-20.52845782 -4.14250472 -9.51292103 -4.86707587 0 0 Z " fill="#FFFFFF" transform="translate(694.99609375,589.6796875)"/>
<path d="M0 0 C6.09260349 5.44029048 8.83448686 12.60852063 9.37741089 20.67901611 C9.57236649 25.48761477 9.54225119 30.29403189 9.5078125 35.10546875 C9.5079678 36.88422708 9.5094619 38.66298575 9.51222229 40.44174194 C9.51359959 44.151745 9.50115873 47.8613583 9.47827148 51.57128906 C9.44984725 56.30652219 9.45264449 61.04111084 9.4653616 65.77639198 C9.47234263 69.44318061 9.46450258 73.10982239 9.45210457 76.77659225 C9.44761653 78.52195038 9.44722989 80.26732442 9.45116997 82.01268387 C9.47728715 103.75093302 9.47728715 103.75093302 2.01171875 112.62890625 C-5.41468761 118.17616121 -11.7621848 119.44952474 -20.98828125 118.62890625 C-27.09221858 116.94855203 -31.71364677 112.99969319 -34.98828125 107.62890625 C-37.45889143 101.90733778 -38.42998163 97.36541087 -38.39233398 91.16845703 C-38.39919724 90.36405182 -38.40606049 89.55964661 -38.41313171 88.73086548 C-38.43130008 86.09513245 -38.42757617 83.46000043 -38.421875 80.82421875 C-38.42644199 78.97630624 -38.43174909 77.12839544 -38.4377594 75.28048706 C-38.44667127 71.41559939 -38.44428982 67.55091855 -38.43432617 63.68603516 C-38.4228463 58.75456725 -38.44304275 53.82381647 -38.47224331 48.8924427 C-38.49066819 45.07806935 -38.49030024 41.2638658 -38.48460579 37.44945908 C-38.4844533 35.63234324 -38.49043693 33.81521536 -38.50289726 31.99814224 C-38.62518107 11.2419955 -38.62518107 11.2419955 -31.61328125 2.75390625 C-21.98977919 -5.0365478 -10.82341533 -7.46369112 0 0 Z " fill="#FFFFFF" transform="translate(1129.98828125,587.37109375)"/>
<path d="M0 0 C5.19793146 4.13471821 9.75194027 10.36749413 11 17 C11.10937017 19.68234175 11.16747202 22.33948608 11.17700195 25.0222168 C11.18685875 26.23035789 11.18685875 26.23035789 11.19691467 27.46290588 C11.21660326 30.1250112 11.22830139 32.78706017 11.23828125 35.44921875 C11.24235678 36.36105234 11.2464323 37.27288593 11.25063133 38.21235085 C11.27147481 43.04024655 11.28578304 47.86811399 11.29516602 52.69604492 C11.30621686 57.66801459 11.34060642 62.63953507 11.38033772 67.61134624 C11.40655757 71.44709573 11.41486269 75.28273912 11.41844749 79.11857033 C11.42330086 80.95048869 11.434879 82.78240272 11.45348549 84.61423302 C11.62911388 103.05354895 11.62911388 103.05354895 7 110 C6.64186722 110.56357712 6.28373444 111.12715424 5.91474915 111.70780945 C2.81005044 115.98519458 -0.99452447 118.53216698 -6 120 C-13.47912173 120.98647904 -19.77949069 120.43700664 -26 116 C-31.39681722 111.46176734 -34.97793577 106.04942842 -36 99 C-36.10695897 96.38195039 -36.16725328 93.7895636 -36.17700195 91.17138672 C-36.18357315 90.39828659 -36.19014435 89.62518646 -36.19691467 88.82865906 C-36.21656668 86.27900072 -36.22829388 83.72940114 -36.23828125 81.1796875 C-36.24235678 80.30436497 -36.2464323 79.42904243 -36.25063133 78.52719498 C-36.27146039 73.89150482 -36.28577419 69.25584395 -36.29516602 64.62011719 C-36.30620707 59.85574961 -36.34058936 55.09185204 -36.38033772 50.32765007 C-36.40660873 46.64365836 -36.41486724 42.95977674 -36.41844749 39.27569962 C-36.42328857 37.52079224 -36.43483096 35.76588896 -36.45348549 34.01107407 C-36.56632615 22.69017788 -36.64098063 12.03952008 -28.8125 3 C-20.53089953 -4.39491947 -9.74863628 -4.56162603 0 0 Z " fill="#FFFFFF" transform="translate(433,586)"/>
<path d="M0 0 C10.33551289 10.97861147 9.15697283 24.4413228 9.1328125 38.65625 C9.13376923 39.9203772 9.13472595 41.18450439 9.13571167 42.48693848 C9.13638797 45.14253263 9.13508664 47.79803276 9.13037109 50.45361328 C9.12467481 53.82184813 9.12796255 57.19000323 9.13394356 60.55823517 C9.13846886 63.82007611 9.13528115 67.081908 9.1328125 70.34375 C9.13483673 71.5347229 9.13686096 72.7256958 9.13894653 73.95275879 C9.07015382 98.8667119 9.07015382 98.8667119 1.6171875 107.625 C-3.12859385 111.98178288 -8.61649424 113.73089451 -14.875 114.4375 C-22.07182819 114.08402121 -28.15923906 111.38633064 -33 106.0625 C-38.41960683 99.17985377 -39.11919407 92.35778957 -39.14526367 83.74462891 C-39.14862228 83.04459244 -39.1519809 82.34455597 -39.15544128 81.62330627 C-39.1648885 79.3243733 -39.1668912 77.02551364 -39.16796875 74.7265625 C-39.1711855 73.11762462 -39.17454989 71.50868703 -39.17805481 69.89974976 C-39.18403039 66.53244346 -39.18589631 63.16516278 -39.18530273 59.79785156 C-39.18520117 55.49857698 -39.19885491 51.19946775 -39.21607494 46.90023232 C-39.22723267 43.57837175 -39.22922079 40.25655069 -39.22869301 36.93467331 C-39.22986738 35.35036016 -39.23425843 33.7660458 -39.24202538 32.18175125 C-39.25190251 29.95910539 -39.24891724 27.73681259 -39.24291992 25.51416016 C-39.24434494 24.25318512 -39.24576996 22.99221008 -39.24723816 21.69302368 C-38.70662986 13.61789778 -36.32566912 7.14500283 -31 1 C-21.98942407 -6.42358604 -9.57368195 -7.19053365 0 0 Z " fill="#FFFFFF" transform="translate(1013,468)"/>
<path d="M0 0 C6.62748737 5.98749395 9.53302726 13.32321555 10.00802612 22.12150574 C10.08499117 26.44167732 10.09877962 30.75748629 10.0859375 35.078125 C10.08728712 36.68180907 10.08923012 38.28549274 10.09173584 39.88917542 C10.094674 43.24036579 10.09043233 46.59144909 10.08105469 49.94262695 C10.06967018 54.21710218 10.07622157 58.49132591 10.08819962 62.76579189 C10.09546158 66.07483276 10.09311031 69.38381501 10.08794403 72.69285774 C10.08661902 74.26796563 10.08821454 75.843079 10.09290314 77.41818047 C10.14599046 100.2640791 10.14599046 100.2640791 1.8203125 108.64453125 C-4.38046687 113.45013526 -10.24440485 115.59567814 -18.1796875 114.64453125 C-25.34895616 112.80795934 -30.16410542 109.89394706 -34.1796875 103.64453125 C-39.60857658 94.09717459 -38.33062862 81.65440279 -38.3125 70.98828125 C-38.31345673 69.72415405 -38.31441345 68.46002686 -38.31539917 67.15759277 C-38.31607547 64.50199862 -38.31477414 61.84649849 -38.31005859 59.19091797 C-38.30436231 55.82268312 -38.30765005 52.45452802 -38.31363106 49.08629608 C-38.31815636 45.82445514 -38.31496865 42.56262325 -38.3125 39.30078125 C-38.31452423 38.10980835 -38.31654846 36.91883545 -38.31863403 35.69177246 C-38.24740023 9.89375675 -38.24740023 9.89375675 -30.3515625 1.76171875 C-21.48835844 -5.46144362 -9.60365231 -6.74588532 0 0 Z " fill="#FFFFFF" transform="translate(552.1796875,467.35546875)"/>
</svg>
